<svg version="1.1" id="Шар_1" xmlns="http://www.w3.org/2000/svg" x="0" y="0" viewBox="0 0 18 18" style="enable-background:new 0 0 18 18" xml:space="preserve"><style>.st0{fill:#bd15d5}</style><path class="st0" d="M16.87 10.31c.47-4.51-.33-7.35-1.73-8.62-2.27-2.17-9.85-2.41-12.51.24-1.19 1.3-1.6 3.18-1.62 5.51-.02 2.33-.03 6.7 3.94 7.84l.02 1.81s-.02.73.44.88c.52.17.75-.17 2.35-2.18 2.71.21 4.79-.36 5.02-.45.55-.2 3.64-.65 4.09-5.03zm-8.85 4.2S6.33 16.73 5.8 17.3c-.17.19-.36.17-.37-.2 0-.24-.02-3-.02-3-3.37-.95-3.21-4.67-3.19-6.62.02-1.95.34-3.54 1.35-4.63C5.9.55 12.55.99 14.26 2.61c2.09 1.86 1.41 7.2 1.42 7.38-.39 3.65-2.89 3.91-3.35 4.07-.19.08-2.02.58-4.31.45z"/><path class="st0" d="M8.84 3.22c-.28 0-.28.45 0 .45 2.17-.01 3.98 1.53 4.03 4.39 0 .3.43.29.43-.01-.05-3.07-2.03-4.83-4.46-4.83z"/><path class="st0" d="M11.75 7.6c0 .3.43.31.43.01.02-1.7-1.02-3.08-2.93-3.21-.28-.02-.3.43-.02.45 1.65.11 2.54 1.27 2.52 2.75zm-.44 1.94c-.36-.21-.73-.07-.88.14l-.31.42c-.16.22-.46.19-.46.19-2.2-.57-2.81-2.92-2.81-2.92s-.03-.32.17-.5l.39-.34c.2-.16.32-.55.11-.93-.54-.99-.91-1.34-1.09-1.6-.2-.25-.49-.3-.79-.13h-.01c-.62.39-1.31 1.1-1.08 1.83.38.76 1.1 3.21 3.32 5.04 1.04.86 2.69 1.74 3.39 1.94l.01.01c.69.23 1.35-.52 1.69-1.19v-.01c.15-.32.1-.63-.13-.83-.41-.39-1.03-.84-1.52-1.12z"/><path class="st0" d="M9.56 6.06c.7.03 1.04.41 1.09 1.18.02.3.44.28.43-.03-.06-1.01-.57-1.56-1.49-1.6-.29-.01-.31.44-.03.45z"/></svg>